# xmcd CD database file
#
# Track frame offsets:
#	150
#	18762
#	34357
#	52967
#	70967
#	88507
#	102065
#	121457
#	138512
#	153802
#	168972
#	178187
#
# Disc length: 2582 seconds
#
# Revision: 0
# Processed by: cddbd v1.5.1PL0 Copyright (c) Steve Scherf et al.
# Submitted via: CDex 1.51
#
DISCID=950a140c
DTITLE=Various Artist - Puma (Ford Audio Systems)
DYEAR=1997
DGENRE=Blues
TTITLE0=Self control - Laura Branigan
TTITLE1=We are family - Sister Sledge
TTITLE2=I'm every woman - Chaka Khan
TTITLE3=I'd love you to want me - Lobo
TTITLE4=Blue bayou - Linda Ronstadt
TTITLE5=Stand by me - Ben E. King
TTITLE6=You might need somebody - Randy Crawford
TTITLE7=If you could read my mind - Gordon Lightfoot
TTITLE8=Soul man - Blues Brothers
TTITLE9=Cold as ice - Foreigner
TTITLE10=Wake up little Susie - The Everly Brothers
TTITLE11=What I did for love - Kenny Rogers
EXTD=YEAR: 1997
EXTT0=
EXTT1=
EXTT2=
EXTT3=
EXTT4=
EXTT5=
EXTT6=
EXTT7=
EXTT8=
EXTT9=
EXTT10=
EXTT11=
PLAYORDER=
